<svg xmlns="http://www.w3.org/2000/svg" viewBox="0 0 1200 1600">
  <defs>
    <filter id="soft"><feGaussianBlur stdDeviation="1.5"/></filter>
    <linearGradient id="honey" x1="0" y1="0" x2="0" y2="1"><stop offset="0%" stop-color="#FFD700"/><stop offset="100%" stop-color="#FFB400"/></linearGradient>
  </defs>
  <!-- Frame border -->
  <rect x="50" y="40" width="1100" height="1480" rx="30" fill="none" stroke="#E8C547" stroke-width="3"/>
  <rect x="62" y="52" width="1076" height="1456" rx="24" fill="none" stroke="#E8C547" stroke-width="1" opacity="0.4"/>
  <!-- Corner flowers -->
  <circle cx="70" cy="60" r="15" fill="#FFB400" opacity="0.7"/>
  <circle cx="1130" cy="60" r="15" fill="#FFB400" opacity="0.7"/>
  <circle cx="70" cy="1540" r="15" fill="#FFB400" opacity="0.7"/>
  <circle cx="1130" cy="1540" r="15" fill="#FFB400" opacity="0.7"/>
  <!-- Pooh (top left) -->
  <g transform="translate(100,80)">
    <ellipse cx="0" cy="0" rx="30" ry="25" fill="#D4A050"/><circle cx="-8" cy="-15" r="10" fill="#D4A050"/>
    <circle cx="8" cy="-15" r="10" fill="#D4A050"/><ellipse cx="0" cy="5" rx="12" ry="8" fill="#F5DEB3"/>
    <circle cx="-6" cy="-15" r="2" fill="#333"/><circle cx="6" cy="-15" r="2" fill="#333"/>
    <ellipse cx="0" cy="-8" rx="3" ry="2" fill="#C44D4D"/>
    <rect x="-25" y="20" width="12" height="14" rx="4" fill="#FFB400"/><text x="-19" y="32" font-size="8" fill="#8B6914" font-family="sans-serif">🍯</text>
  </g>
  <!-- Piglet (top right) -->
  <g transform="translate(1050,80)">
    <ellipse cx="0" cy="0" rx="18" ry="22" fill="#FFB6C1"/><circle cx="0" cy="-15" r="8" fill="#FFB6C1"/>
    <ellipse cx="-8" cy="-15" r="4" fill="#FF69B4"/><ellipse cx="8" cy="-15" r="4" fill="#FF69B4"/>
    <circle cx="-4" cy="-15" r="1.5" fill="#333"/><circle cx="4" cy="-15" r="1.5" fill="#333"/>
    <ellipse cx="0" cy="-5" rx="6" ry="4" fill="#FF69B4"/>
  </g>
  <!-- Tigger (bottom left) -->
  <g transform="translate(100,1500)">
    <ellipse cx="0" cy="0" rx="22" ry="28" fill="#F4A460"/><circle cx="0" cy="-20" r="10" fill="#F4A460"/>
    <ellipse cx="0" cy="-5" rx="12" ry="10" fill="#FFF8DC"/><circle cx="-4" cy="-20" r="2" fill="#333"/><circle cx="4" cy="-20" r="2" fill="#333"/>
    <ellipse cx="0" cy="-12" rx="3" ry="2" fill="#E891A0"/><rect x="-8" y="0" width="3" height="20" rx="1" fill="#333" opacity="0.3"/>
    <rect x="-2" y="0" width="3" height="20" rx="1" fill="#333" opacity="0.3"/><rect x="4" y="0" width="3" height="20" rx="1" fill="#333" opacity="0.3"/>
    <text x="-15" y="30" font-size="14">🐯</text>
  </g>
  <!-- Eeyore (bottom right) -->
  <g transform="translate(1080,1490)">
    <ellipse cx="0" cy="0" rx="20" ry="24" fill="#A0A0B0"/><circle cx="0" cy="-16" r="8" fill="#A0A0B0"/>
    <ellipse cx="-9" cy="-16" rx="5" ry="8" fill="#808090"/><ellipse cx="9" cy="-16" rx="5" ry="8" fill="#808090"/>
    <circle cx="-4" cy="-16" r="2" fill="#333"/><circle cx="4" cy="-16" r="2" fill="#333"/>
    <ellipse cx="0" cy="-6" rx="4" ry="2" fill="#666"/>
    <rect x="-3" y="20" width="6" height="6" rx="2" fill="#E891A0"/>
    <path d="M-8,20 Q-14,18 -16,14" stroke="#A0A0B0" stroke-width="2" fill="none"/>
  </g>
  <!-- Honey drips -->
  <ellipse cx="200" cy="30" rx="8" ry="12" fill="#FFB400" opacity="0.6"/>
  <ellipse cx="500" cy="28" rx="6" ry="10" fill="#FFB400" opacity="0.5"/>
  <ellipse cx="800" cy="32" rx="7" ry="11" fill="#FFB400" opacity="0.6"/>
  <ellipse cx="1000" cy="30" rx="5" ry="8" fill="#FFB400" opacity="0.5"/>
  <!-- Bee -->
  <g transform="translate(350,35)"><ellipse cx="0" cy="0" rx="6" ry="4" fill="#FFD700"/><rect x="-6" y="-2" width="12" height="1" fill="#333"/><rect x="-6" y="1" width="12" height="1" fill="#333"/><ellipse cx="-6" cy="-4" rx="4" ry="3" fill="#FFF" opacity="0.5"/></g>
  <g transform="translate(650,32)"><ellipse cx="0" cy="0" rx="6" ry="4" fill="#FFD700"/><rect x="-6" y="-2" width="12" height="1" fill="#333"/><rect x="-6" y="1" width="12" height="1" fill="#333"/></g>
  <!-- Branding -->
  <text x="600" y="1565" text-anchor="middle" font-family="Georgia,serif" font-size="24" fill="#8B6914" opacity="0.7">Hundred Acre Gang</text>
</svg>