<svg viewBox="0 0 1200 1600" xmlns="http://www.w3.org/2000/svg">
          <rect x="40" y="35" width="1120" height="1530" rx="30" fill="none" stroke="#E8C547" stroke-width="4"/>
          <rect x="55" y="50" width="1090" height="1500" rx="24" fill="none" stroke="#E8C547" stroke-width="1.5" opacity="0.5"/>
          <!-- Pooh top left -->
          <g transform="translate(160,120)"><ellipse cx="0" cy="0" rx="42" ry="36" fill="#D4A050"/><circle cx="-10" cy="-20" r="14" fill="#D4A050"/><circle cx="10" cy="-20" r="14" fill="#D4A050"/><ellipse cx="0" cy="8" rx="16" ry="10" fill="#F5DEB3"/><circle cx="-8" cy="-20" r="2.5" fill="#333"/><circle cx="8" cy="-20" r="2.5" fill="#333"/><ellipse cx="0" cy="-8" rx="4" ry="2" fill="#C44D4D"/><rect x="-18" y="22" width="36" height="18" rx="7" fill="#C44D4D"/></g>
          <!-- Piglet top right -->
          <g transform="translate(1020,130)"><ellipse cx="0" cy="0" rx="22" ry="28" fill="#FFB6C1"/><circle cx="0" cy="-18" r="10" fill="#FFB6C1"/><ellipse cx="-9" cy="-18" r="5" fill="#FF69B4"/><ellipse cx="9" cy="-18" r="5" fill="#FF69B4"/><circle cx="-4" cy="-18" r="1.5" fill="#333"/><circle cx="4" cy="-18" r="1.5" fill="#333"/><ellipse cx="0" cy="-6" rx="7" ry="5" fill="#FF69B4"/></g>
          <!-- Tigger bottom left -->
          <g transform="translate(180,1420)"><ellipse cx="0" cy="0" rx="28" ry="36" fill="#F4A460"/><circle cx="0" cy="-26" r="13" fill="#F4A460"/><ellipse cx="0" cy="-4" rx="15" ry="12" fill="#FFF8DC"/><circle cx="-5" cy="-26" r="2.5" fill="#333"/><circle cx="5" cy="-26" r="2.5" fill="#333"/><ellipse cx="0" cy="-14" rx="4" ry="2.5" fill="#E891A0"/></g>
          <!-- Eeyore bottom right -->
          <g transform="translate(1000,1410)"><ellipse cx="0" cy="0" rx="26" ry="32" fill="#A0A0B0"/><circle cx="0" cy="-22" r="11" fill="#A0A0B0"/><ellipse cx="-11" cy="-22" rx="6" ry="10" fill="#808090"/><ellipse cx="11" cy="-22" rx="6" ry="10" fill="#808090"/><circle cx="-4" cy="-22" r="2" fill="#333"/><circle cx="4" cy="-22" r="2" fill="#333"/><ellipse cx="0" cy="-6" rx="5" ry="2.5" fill="#666"/><rect x="-4" y="28" width="8" height="8" rx="3" fill="#E891A0"/></g>
          <!-- Honey drips -->
          <ellipse cx="300" cy="30" rx="10" ry="14" fill="#FFB400" opacity="0.4"/><ellipse cx="700" cy="28" rx="8" ry="12" fill="#FFB400" opacity="0.4"/>
          <text x="600" y="1565" text-anchor="middle" font-size="28" fill="#8B6914" font-family="Georgia,serif" opacity="0.7">Hundred Acre Gang</text>
        </svg>