<svg viewBox="0 0 1200 1600" xmlns="http://www.w3.org/2000/svg">
<rect x="30" y="25" width="1140" height="1550" rx="28" fill="none" stroke="#E8C547" stroke-width="4"/>
<rect x="46" y="41" width="1108" height="1518" rx="22" fill="none" stroke="#E8C547" stroke-width="1.5" opacity="0.5"/>
<!-- Pooh - top left, BIG -->
<g transform="translate(140,130) scale(1.6)"><ellipse cx="0" cy="0" rx="40" ry="34" fill="#D4A050"/><circle cx="-9" cy="-19" r="13" fill="#D4A050"/><circle cx="9" cy="-19" r="13" fill="#D4A050"/><ellipse cx="0" cy="7" rx="15" ry="10" fill="#F5DEB3"/><circle cx="-7" cy="-19" r="2.5" fill="#333"/><circle cx="7" cy="-19" r="2.5" fill="#333"/><ellipse cx="0" cy="-7" rx="4" ry="2" fill="#C44D4D"/><rect x="-16" y="20" width="32" height="16" rx="6" fill="#C44D4D"/></g>
<!-- Piglet - top right -->
<g transform="translate(1020,120) scale(1.4)"><ellipse cx="0" cy="0" rx="24" ry="30" fill="#FFB6C1"/><circle cx="0" cy="-20" r="12" fill="#FFB6C1"/><ellipse cx="-10" cy="-20" r="6" fill="#FF69B4"/><ellipse cx="10" cy="-20" r="6" fill="#FF69B4"/><circle cx="-4" cy="-20" r="2" fill="#333"/><circle cx="4" cy="-20" r="2" fill="#333"/><ellipse cx="0" cy="-7" rx="8" ry="6" fill="#FF69B4"/><rect x="-8" y="24" width="16" height="14" rx="5" fill="#FF69B4"/></g>
<!-- Tigger - bottom left -->
<g transform="translate(160,1420) scale(1.4)"><ellipse cx="0" cy="0" rx="30" ry="38" fill="#F4A460"/><circle cx="0" cy="-28" r="14" fill="#F4A460"/><ellipse cx="0" cy="-6" rx="16" ry="13" fill="#FFF8DC"/><circle cx="-6" cy="-28" r="3" fill="#333"/><circle cx="6" cy="-28" r="3" fill="#333"/><ellipse cx="0" cy="-15" rx="5" ry="3" fill="#E891A0"/><rect x="-10" y="0" width="3" height="24" rx="1.5" fill="#333" opacity=".3"/><rect x="3" y="0" width="3" height="24" rx="1.5" fill="#333" opacity=".3"/><rect x="10" y="0" width="3" height="24" rx="1.5" fill="#333" opacity=".3"/></g>
<!-- Eeyore - bottom right -->
<g transform="translate(1020,1410) scale(1.4)"><ellipse cx="0" cy="0" rx="28" ry="34" fill="#A0A0B0"/><circle cx="0" cy="-24" r="12" fill="#A0A0B0"/><ellipse cx="-12" cy="-24" rx="7" ry="12" fill="#808090"/><ellipse cx="12" cy="-24" rx="7" ry="12" fill="#808090"/><circle cx="-5" cy="-24" r="2.5" fill="#333"/><circle cx="5" cy="-24" r="2.5" fill="#333"/><ellipse cx="0" cy="-8" rx="6" ry="3" fill="#666"/><rect x="-5" y="28" width="10" height="10" rx="3" fill="#E891A0"/></g>
<ellipse cx="300" cy="28" rx="12" ry="16" fill="#FFB400" opacity="0.3"/><ellipse cx="700" cy="26" rx="10" ry="14" fill="#FFB400" opacity="0.3"/>
<text x="600" y="1575" text-anchor="middle" font-size="26" fill="#8B6914" font-family="Georgia,serif" opacity="0.6">All Together</text>
</svg>