<svg xmlns="http://www.w3.org/2000/svg" viewBox="0 0 1200 1600">

  <rect x="50" y="40" width="1100" height="1480" rx="30" fill="none" stroke="#E8C547" stroke-width="3"/>
  <g transform="translate(200,130)">
    <ellipse cx="0" cy="0" rx="24" ry="30" fill="#FFB6C1"/><circle cx="0" cy="-20" r="12" fill="#FFB6C1"/>
    <ellipse cx="-10" cy="-20" r="6" fill="#FF69B4"/><ellipse cx="10" cy="-20" r="6" fill="#FF69B4"/>
    <circle cx="-5" cy="-20" r="2" fill="#333"/><circle cx="5" cy="-20" r="2" fill="#333"/><ellipse cx="0" cy="-8" rx="8" ry="6" fill="#FF69B4"/>
  </g>
  <!-- Small flowers -->
  <g transform="translate(150,250)"><circle cx="0" cy="0" r="3" fill="#FFD700"/><circle cx="-5" cy="-4" r="4" fill="#FFB6C1"/><circle cx="5" cy="-4" r="4" fill="#FFB6C1"/><circle cx="-6" cy="4" r="4" fill="#FFB6C1"/><circle cx="6" cy="4" r="4" fill="#FFB6C1"/></g>
  <g transform="translate(1050,250)"><circle cx="0" cy="0" r="3" fill="#FFD700"/><circle cx="-5" cy="-4" r="4" fill="#FFB6C1"/><circle cx="5" cy="-4" r="4" fill="#FFB6C1"/></g>
  <text x="600" y="1565" text-anchor="middle" font-family="Georgia,serif" font-size="28" fill="#8B6914" opacity="0.7">Piglet</text>
</svg>