<svg viewBox="0 0 1200 1600" xmlns="http://www.w3.org/2000/svg">
          <rect x="50" y="40" width="1100" height="1480" rx="30" fill="none" stroke="#E8C547" stroke-width="3"/>
          <g transform="translate(180,130)"><ellipse cx="0" cy="0" rx="28" ry="34" fill="#FFB6C1"/><circle cx="0" cy="-24" r="14" fill="#FFB6C1"/><ellipse cx="-11" cy="-24" r="7" fill="#FF69B4"/><ellipse cx="11" cy="-24" r="7" fill="#FF69B4"/><circle cx="-5" cy="-24" r="2.5" fill="#333"/><circle cx="5" cy="-24" r="2.5" fill="#333"/><ellipse cx="0" cy="-10" rx="9" ry="7" fill="#FF69B4"/><rect x="-10" y="28" width="20" height="16" rx="6" fill="#FF69B4"/></g>
          <g transform="translate(120,260)"><circle cx="0" cy="0" r="4" fill="#FFD700"/><circle cx="-6" cy="-5" r="5" fill="#FFB6C1"/><circle cx="6" cy="-5" r="5" fill="#FFB6C1"/><circle cx="-7" cy="5" r="5" fill="#FFB6C1"/><circle cx="7" cy="5" r="5" fill="#FFB6C1"/></g>
          <g transform="translate(1080,280)"><circle cx="0" cy="0" r="3" fill="#FFD700"/><circle cx="-4" cy="-4" r="4" fill="#FFB6C1"/><circle cx="4" cy="-4" r="4" fill="#FFB6C1"/></g>
          <text x="600" y="1565" text-anchor="middle" font-size="28" fill="#8B6914" font-family="Georgia,serif" opacity="0.7">Piglet</text>
        </svg>