<svg xmlns="http://www.w3.org/2000/svg" viewBox="0 0 1200 1600">

  <rect x="50" y="40" width="1100" height="1480" rx="30" fill="none" stroke="#E8C547" stroke-width="3"/>
  <rect x="62" y="52" width="1076" height="1456" rx="24" fill="none" stroke="#E8C547" stroke-width="1" opacity="0.4"/>
  <g transform="translate(180,120)">
    <ellipse cx="0" cy="0" rx="45" ry="38" fill="#D4A050"/><circle cx="-12" cy="-22" r="15" fill="#D4A050"/><circle cx="12" cy="-22" r="15" fill="#D4A050"/>
    <ellipse cx="0" cy="8" rx="18" ry="12" fill="#F5DEB3"/><circle cx="-9" cy="-22" r="3" fill="#333"/><circle cx="9" cy="-22" r="3" fill="#333"/>
    <ellipse cx="0" cy="-10" rx="5" ry="3" fill="#C44D4D"/>
    <rect x="-20" y="25" width="40" height="20" rx="8" fill="#E8C547"/><text x="0" y="40" text-anchor="middle" font-size="12" fill="#8B6914">🍯</text>
  </g>
  <!-- Honey drips -->
  <ellipse cx="200" cy="30" rx="8" ry="12" fill="#FFB400" opacity="0.6"/>
  <ellipse cx="500" cy="28" rx="6" ry="10" fill="#FFB400" opacity="0.5"/>
  <ellipse cx="800" cy="32" rx="7" ry="11" fill="#FFB400" opacity="0.6"/>
  <!-- Bee -->
  <g transform="translate(400,35)"><ellipse cx="0" cy="0" rx="8" ry="5" fill="#FFD700"/><rect x="-8" y="-2" width="16" height="2" fill="#333"/><ellipse cx="-8" cy="-4" rx="5" ry="3" fill="#FFF" opacity="0.6"/></g>
  <text x="600" y="1565" text-anchor="middle" font-family="Georgia,serif" font-size="28" fill="#8B6914" opacity="0.7">Winnie the Pooh</text>
</svg>