<svg xmlns="http://www.w3.org/2000/svg" viewBox="0 0 1200 1600">

  <rect x="50" y="40" width="1100" height="1480" rx="30" fill="none" stroke="#E8C547" stroke-width="3"/>
  <g transform="translate(180,140)">
    <ellipse cx="0" cy="0" rx="30" ry="38" fill="#F4A460"/><circle cx="0" cy="-28" r="14" fill="#F4A460"/>
    <ellipse cx="0" cy="-6" rx="16" ry="14" fill="#FFF8DC"/><circle cx="-6" cy="-28" r="3" fill="#333"/><circle cx="6" cy="-28" r="3" fill="#333"/>
    <ellipse cx="0" cy="-16" rx="5" ry="3" fill="#E891A0"/>
    <rect x="-12" y="0" width="4" height="30" rx="2" fill="#333" opacity="0.3"/><rect x="-4" y="0" width="4" height="30" rx="2" fill="#333" opacity="0.3"/><rect x="4" y="0" width="4" height="30" rx="2" fill="#333" opacity="0.3"/><rect x="12" y="0" width="4" height="30" rx="2" fill="#333" opacity="0.3"/>
  </g>
  <!-- Bouncing lines -->
  <path d="M 140,180 Q 160,170 170,180" stroke="#F4A460" stroke-width="2" fill="none"/>
  <path d="M 140,170 Q 155,155 165,170" stroke="#FFD700" stroke-width="1.5" fill="none"/>
  <text x="600" y="1565" text-anchor="middle" font-family="Georgia,serif" font-size="28" fill="#8B6914" opacity="0.7">Tigger</text>
</svg>