<svg xmlns="http://www.w3.org/2000/svg" viewBox="0 0 512 512">
  <defs>
    <linearGradient id="bg" x1="0" y1="0" x2="1" y2="1"><stop offset="0%" stop-color="#FFFAF0"/><stop offset="100%" stop-color="#FFE4C4"/></linearGradient>
    <filter id="shadow"><feDropShadow dx="0" dy="4" stdDeviation="8" flood-color="#2D1B11" flood-opacity="0.12"/></filter>
  </defs>
  <rect width="512" height="512" rx="90" fill="url(#bg)"/>
  <g filter="url(#shadow)">
    <rect x="100" y="160" width="312" height="210" rx="45" fill="#2D1B11"/>
    <rect x="120" y="140" width="95" height="25" rx="8" fill="#D4956A"/>
    <rect x="300" y="145" width="80" height="18" rx="6" fill="#D4956A" opacity="0.5"/>
    <circle cx="256" cy="250" r="70" fill="#4A2515" stroke="#D4956A" stroke-width="5"/>
    <circle cx="256" cy="250" r="42" fill="#1A0D06"/>
    <circle cx="256" cy="250" r="22" fill="#D4956A" opacity="0.3"/>
    <path d="M248 250 C248 242 256 238 262 238 C268 238 268 244 262 248 C256 252 248 242 248 250Z" fill="#FFB400"/>
  </g>
  <circle cx="380" cy="210" r="5" fill="#FFB400"/>
  <circle cx="120" cy="380" r="4" fill="#E891A0"/>
  <rect x="175" y="395" width="162" height="30" rx="15" fill="#D4956A"/>
  <text x="256" y="416" text-anchor="middle" font-family="Georgia,serif" font-size="14" font-weight="bold" fill="#FFFAF0">OURS</text>
</svg>