<svg xmlns="http://www.w3.org/2000/svg" viewBox="0 0 200 200"><rect fill="#FCE4EC" width="200" height="200" rx="30"/><path d="M 60 60 Q 50 40 80 50 Q 110 60 100 70 Q 90 60 60 60 Z" fill="#E91E63"/><path d="M 140 60 Q 150 40 120 50 Q 90 60 100 70 Q 110 60 140 60 Z" fill="#E91E63"/><circle cx="100" cy="65" r="12" fill="#F06292"/><path d="M 70 130 Q 60 110 80 120 L 120 140 Q 130 130 140 150 L 80 140 Z" fill="#E91E63"/><path d="M 60 130 Q 50 110 70 120 L 110 140 Q 120 130 130 150 L 70 140 Z" fill="#F06292"/><circle cx="100" cy="135" r="10" fill="#E91E63"/><text x="100" y="180" text-anchor="middle" font-family="serif" font-size="14" font-weight="bold" fill="#C2185B">Bows</text></svg>