<svg viewBox="0 0 1200 1600" xmlns="http://www.w3.org/2000/svg">
          <rect x="50" y="40" width="1100" height="1480" rx="30" fill="none" stroke="#E891A0" stroke-width="3"/>
          <!-- Bows -->
          <g transform="translate(160,120)"><circle cx="0" cy="0" r="12" fill="#E8443A"/><ellipse cx="-20" cy="3" rx="20" ry="11" fill="#E8443A" transform="rotate(-25)"/><ellipse cx="20" cy="3" rx="20" ry="11" fill="#E8443A" transform="rotate(25)"/><rect x="-6" y="12" width="12" height="14" rx="3" fill="#E8443A"/></g>
          <g transform="translate(1000,120)"><circle cx="0" cy="0" r="8" fill="#FFB6C1"/><ellipse cx="-14" cy="2" rx="14" ry="8" fill="#FFB6C1" transform="rotate(-20)"/><ellipse cx="14" cy="2" rx="14" ry="8" fill="#FFB6C1" transform="rotate(20)"/></g>
          <g transform="translate(500,80)"><circle cx="0" cy="0" r="6" fill="#E891A0" opacity="0.6"/><ellipse cx="-9" cy="1" rx="9" ry="5" fill="#E891A0" opacity="0.6" transform="rotate(-20)"/><ellipse cx="9" cy="1" rx="9" ry="5" fill="#E891A0" opacity="0.6" transform="rotate(20)"/></g>
          <!-- Polka dots -->
          <circle cx="200" cy="50" r="5" fill="#FFB6C1" opacity="0.35"/><circle cx="600" cy="45" r="4" fill="#E891A0" opacity="0.3"/><circle cx="900" cy="50" r="5" fill="#FFB6C1" opacity="0.35"/>
          <text x="600" y="1565" text-anchor="middle" font-size="28" fill="#E891A0" font-family="Georgia,serif" opacity="0.7">Bows &amp; Ribbons</text>
        </svg>