<svg xmlns="http://www.w3.org/2000/svg" viewBox="0 0 1200 1600" width="1200" height="1600">
  <defs>
    <clipPath id="ff"><path d="M60,60 H1140 V1540 H60 Z"/></clipPath>
    <g id="s"><path d="M0,-30 Q15,-15 0,0 Q-15,-15 0,-30 M0,0 Q15,15 0,30 Q-15,15 0,0 M0,0 Q-30,15 -30,0 Q-15,-15 0,0 M0,0 Q30,-15 30,0 Q15,15 0,0" fill="#FFF5CC"/></g>
    <g id="f"><circle cx="0" cy="-15" r="12" fill="#E891A0"/><circle cx="14" cy="-5" r="12" fill="#E891A0"/><circle cx="9" cy="12" r="12" fill="#E891A0"/><circle cx="-9" cy="12" r="12" fill="#E891A0"/><circle cx="-14" cy="-5" r="12" fill="#E891A0"/><circle cx="0" cy="2" r="9" fill="#FFF5CC"/></g>
    <g id="b">
      <path d="M0,0 C30,-30 80,-30 80,0 C80,30 30,30 0,0 Z" fill="#E8443A"/>
      <path d="M0,0 C-30,-30 -80,-30 -80,0 C-80,30 -30,30 0,0 Z" fill="#E8443A"/>
      <circle cx="0" cy="0" r="22" fill="#E8443A"/>
      <circle cx="0" cy="0" r="12" fill="#E891A0"/>
    </g>
  </defs>

  <rect width="1200" height="1600" fill="#FFF0F3"/>
  <g clip-path="url(#ff)">
    <path d="M140,80 H1060 A60,60 0 0,1 1120,140 V1460 A60,60 0 0,1 1060,1520 H140 A60,60 0 0,1 80,1460 V140 A60,60 0 0,1 140,80 Z" fill="#FFFFFF" stroke="#E891A0" stroke-width="12"/>
  </g>

  <!-- Top Left Kitty -->
  <g transform="translate(230, 230)">
    <ellipse cx="-75" cy="-95" rx="110" ry="135" fill="#FFFFFF" stroke="#E891A0" stroke-width="3"/>
    <ellipse cx="75" cy="-95" rx="110" ry="135" fill="#FFFFFF" stroke="#E891A0" stroke-width="3"/>
    <ellipse cx="0" cy="20" rx="135" ry="115" fill="#FFFFFF" stroke="#E891A0" stroke-width="3"/>
    <g transform="translate(110, -130) scale(0.65)"><use href="#b"/></g>
    <!-- Whiskers -->
    <path d="M-30,30 Q-100,20 -150,35 M-30,45 Q-100,45 -150,45 M30,30 Q100,20 150,35 M30,45 Q100,45 150,45" stroke="#E891A0" stroke-width="2.5" fill="none" stroke-linecap="round"/>
    <circle cx="-35" cy="5" r="9" fill="#1A1A1A"/>
    <circle cx="35" cy="5" r="9" fill="#1A1A1A"/>
    <ellipse cx="0" cy="30" rx="16" ry="12" fill="#FFF5CC"/>
  </g>

  <!-- Top Right Bow -->
  <g transform="translate(970, 220) scale(1.8)"><use href="#b"/></g>

  <!-- Bottom Edge Decoration -->
  <g transform="translate(0, 1430)">
    <!-- White Scalloped Edge -->
    <path d="M60,0 Q105,40 150,0 Q195,40 240,0 Q285,40 330,0 Q375,40 420,0 Q465,40 510,0 Q555,40 600,0 Q645,40 690,0 Q735,40 780,0 Q825,40 870,0 Q915,40 960,0 Q1005,40 1050,0 Q1095,40 1140,0 V110 H60 Z" fill="#FFFFFF"/>
    
    <!-- Pink Ribbon -->
    <path d="M60,35 H1140 V65 H60 Z" fill="#E891A0"/>
    <circle cx="105" cy="50" r="8" fill="#FFF5CC"/>
    <circle cx="255" cy="50" r="8" fill="#FFF5CC"/>
    <circle cx="405" cy="50" r="8" fill="#FFF5CC"/>
    <circle cx="555" cy="50" r="8" fill="#FFF5CC"/>
    <circle cx="705" cy="50" r="8" fill="#FFF5CC"/>
    <circle cx="855" cy="50" r="8" fill="#FFF5CC"/>
    <circle cx="1005" cy="50" r="8" fill="#FFF5CC"/>

    <!-- Stars and Flowers -->
    <use href="#s" transform="translate(150, 95) scale(0.6)"/>
    <use href="#f" transform="translate(300, 85) scale(0.85)"/>
    <use href="#s" transform="translate(450, 95) scale(0.6)"/>
    <use href="#f" transform="translate(600, 85) scale(1.15)"/>
    <use href="#s" transform="translate(750, 95) scale(0.6)"/>
    <use href="#f" transform="translate(900, 85) scale(0.85)"/>
    <use href="#s" transform="translate(1050, 95) scale(0.6)"/>
  </g>
</svg>