<svg xmlns="http://www.w3.org/2000/svg" viewBox="0 0 1200 1600">

  <rect x="50" y="40" width="1100" height="1480" rx="30" fill="none" stroke="#E891A0" stroke-width="3"/>
  <g transform="translate(180,120)">
    <ellipse cx="0" cy="0" rx="32" ry="28" fill="#FFFFFF" stroke="#DDD" stroke-width="1.5"/>
    <ellipse cx="-20" cy="-22" rx="14" ry="16" fill="#FFFFFF" stroke="#DDD" stroke-width="1"/>
    <ellipse cx="20" cy="-22" rx="14" ry="16" fill="#FFFFFF" stroke="#DDD" stroke-width="1"/>
    <ellipse cx="-18" cy="-20" rx="7" ry="9" fill="#FFE8EC"/><ellipse cx="18" cy="-20" rx="7" ry="9" fill="#FFE8EC"/>
    <circle cx="-10" cy="-5" r="2.5" fill="#333"/><circle cx="10" cy="-5" r="2.5" fill="#333"/>
    <ellipse cx="0" cy="2" rx="4" ry="3" fill="#FFD700"/>
    <line x1="-16" y1="5" x2="-32" y2="2" stroke="#DDD" stroke-width="1.5"/>
    <line x1="-16" y1="8" x2="-32" y2="12" stroke="#DDD" stroke-width="1.5"/>
    <line x1="16" y1="5" x2="32" y2="2" stroke="#DDD" stroke-width="1.5"/>
    <line x1="16" y1="8" x2="32" y2="12" stroke="#DDD" stroke-width="1.5"/>
    <g transform="translate(26,-24)"><circle cx="0" cy="0" r="7" fill="#E8443A"/><ellipse cx="-10" cy="2" rx="10" ry="7" fill="#E8443A" transform="rotate(-20)"/><ellipse cx="10" cy="2" rx="10" ry="7" fill="#E8443A" transform="rotate(20)"/></g>
  </g>
  <!-- Stars -->
  <text x="900" y="80" font-size="18" fill="#FFD700" opacity="0.4">★</text><text x="350" y="75" font-size="14" fill="#FFD700" opacity="0.4">★</text>
  <text x="600" y="1565" text-anchor="middle" font-family="Georgia,serif" font-size="28" fill="#E891A0" opacity="0.7">Hello Kitty</text>
</svg>