<svg xmlns="http://www.w3.org/2000/svg" viewBox="0 0 1200 1600" width="1200" height="1600">
  <defs>
    <clipPath id="centerHole"><rect x="80" y="210" width="1040" height="1180" rx="20" ry="20"/></clipPath>
    <mask id="centerMask">
      <rect width="1200" height="1600" fill="white"/>
      <rect x="80" y="210" width="1040" height="1180" rx="20" ry="20" fill="black"/>
    </mask>
    <symbol id="heart" viewBox="-50 -45 100 90" overflow="visible">
      <path d="M0,35 C-45,5 -50,-25 -25,-40 C-10,-40 -3,-30 0,-18 C3,-30 10,-40 25,-40 C50,-25 45,5 0,35 Z" fill="#E8443A"/>
    </symbol>
    <symbol id="heartPink" viewBox="-50 -45 100 90" overflow="visible">
      <path d="M0,35 C-45,5 -50,-25 -25,-40 C-10,-40 -3,-30 0,-18 C3,-30 10,-40 25,-40 C50,-25 45,5 0,35 Z" fill="#FFB6C1"/>
    </symbol>
  </defs>

  <rect width="1200" height="1600" fill="#FFF0F0"/>

  <g mask="url(#centerMask)">
    <rect x="0" y="0" width="1200" height="1600" fill="#1A1A2E"/>
    <path d="M0,0 Q300,50 600,0 T1200,0 L1200,150 Q600,180 0,150 Z" fill="#E8443A"/>
    <path d="M0,1450 Q600,1420 1200,1450 L1200,1600 L0,1600 Z" fill="#E8443A"/>
    
    <path d="M80,280 L80,130" stroke="#FFF0F0" stroke-width="6" fill="none" stroke-dasharray="2 14"/>
    <path d="M1120,280 L1120,130" stroke="#FFF0F0" stroke-width="6" fill="none" stroke-dasharray="2 14"/>
  </g>

  <rect x="80" y="210" width="1040" height="1180" rx="20" ry="20" fill="none" stroke="#E8443A" stroke-width="6" stroke-dasharray="12 10"/>
  <rect x="92" y="222" width="1016" height="1156" rx="14" ry="14" fill="none" stroke="#FFB6C1" stroke-width="3"/>

  <g transform="translate(20, 20)">
    <ellipse cx="95" cy="115" rx="42" ry="45" fill="#1A1A2E"/>
    <circle cx="55" cy="80" r="28" fill="#1A1A2E"/>
    <circle cx="55" cy="80" r="16" fill="#3A3A5E"/>
    <circle cx="135" cy="80" r="28" fill="#1A1A2E"/>
    <circle cx="135" cy="80" r="16" fill="#3A3A5E"/>
    <path d="M52,145 L138,145 L130,235 L60,235 Z" fill="#E8443A"/>
    <circle cx="95" cy="190" r="22" fill="#FFF0F0"/>
    <path d="M50,145 L140,145 L125,165 L65,165 Z" fill="#C31F15"/>
    <path d="M85,95 Q95,105 105,95 L95,85 Z" fill="#1A1A2E"/>
    <circle cx="80" cy="108" r="4" fill="#1A1A2E"/>
    <circle cx="110" cy="108" r="4" fill="#1A1A2E"/>
    <path d="M88,118 Q95,125 102,118" stroke="#E8443A" stroke-width="3" fill="none" stroke-linecap="round"/>
    <path d="M80,130 Q95,140 110,130" stroke="#E8443A" stroke-width="4" fill="#E8443A" stroke-linecap="round"/>
  </g>

  <g transform="translate(1030, 20)">
    <rect x="70" y="25" width="50" height="95" rx="15" fill="#1A1A2E"/>
    <rect x="50" y="80" width="90" height="120" rx="10" fill="#1A1A2E"/>
    <rect x="80" y="110" width="30" height="100" fill="#2A2A4E"/>
    <rect x="145" y="60" width="15" height="110" fill="#1A1A2E"/>
    <ellipse cx="152" cy="55" rx="18" ry="35" transform="rotate(45 152 55)" fill="#E8443A"/>
    <path d="M140,30 L165,75 L135,85 Z" fill="#E8443A"/>
    <circle cx="95" cy="35" r="38" fill="#1A1A2E"/>
    <path d="M60,20 Q95,5 130,20 Q140,35 130,45 Q95,30 60,45 Q50,35 60,20" fill="#1A1A2E"/>
    <path d="M75,15 L90,5 L95,20" stroke="#1A1A2E" stroke-width="4" fill="#1A1A2E"/>
    <circle cx="85" cy="40" r="4" fill="#FFF0F0"/>
    <circle cx="105" cy="40" r="4" fill="#FFF0F0"/>
    <path d="M95,45 Q100,52 105,47" stroke="#FFF0F0" stroke-width="2" fill="none"/>
  </g>

  <use href="#heart" x="180" y="0" width="40" height="40"/>
  <use href="#heartPink" x="900" y="10" width="50" height="50"/>
  <use href="#heart" x="30" y="450" width="35" height="35"/>
  <use href="#heartPink" x="1130" y="400" width="45" height="45"/>
  <use href="#heart" x="20" y="800" width="55" height="55"/>
  <use href="#heartPink" x="1120" y="750" width="50" height="50"/>
  <use href="#heart" x="40" y="1100" width="40" height="40"/>
  <use href="#heartPink" x="1130" y="1080" width="35" height="35"/>
  <use href="#heart" x="250" y="1520" width="60" height="60"/>
  <use href="#heartPink" x="850" y="1530" width="50" height="50"/>
  <use href="#heart" x="550" y="1550" width="40" height="40"/>
  <use href="#heartPink" x="450" y="20" width="30" height="30"/>
  <use href="#heart" x="750" y="10" width="35" height="35"/>
  <use href="#heartPink" x="380" y="1530" width="30" height="30"/>
  <use href="#heart" x="680" y="1540" width="25" height="25"/>
</svg>