<svg viewBox="0 0 1200 1600" xmlns="http://www.w3.org/2000/svg">
          <rect x="50" y="40" width="1100" height="1480" rx="30" fill="none" stroke="#E8443A" stroke-width="3"/>
          <!-- Pucca top left -->
          <g transform="translate(160,120)"><rect x="-22" y="22" width="44" height="40" rx="10" fill="#E8443A"/><ellipse cx="0" cy="0" rx="30" ry="28" fill="#FFE4C4"/><circle cx="-24" cy="-12" r="20" fill="#1A1A2E"/><circle cx="24" cy="-12" r="20" fill="#1A1A2E"/><circle cx="-24" cy="-12" r="9" fill="#E8443A"/><circle cx="24" cy="-12" r="9" fill="#E8443A"/><circle cx="-10" cy="-5" r="3.5" fill="#333"/><circle cx="10" cy="-5" r="3.5" fill="#333"/><path d="M-7 6 Q0 15 7 6" stroke="#E8443A" stroke-width="2.5" fill="none"/></g>
          <!-- Garu top right -->
          <g transform="translate(1000,130)"><rect x="-18" y="22" width="36" height="36" rx="8" fill="#1A1A2E"/><ellipse cx="0" cy="0" rx="26" ry="24" fill="#FFE4C4"/><rect x="-24" y="-16" width="48" height="14" rx="4" fill="#1A1A2E"/><circle cx="-8" cy="-4" r="3" fill="#333"/><circle cx="8" cy="-4" r="3" fill="#333"/><rect x="24" y="22" width="6" height="26" rx="3" fill="#999"/></g>
          <!-- Hearts -->
          <path d="M400 100 C400 88 412 86 416 94 C420 86 432 88 432 100 C432 110 416 118 416 118 C416 118 400 110 400 100Z" fill="#E8443A" opacity="0.3"/>
          <path d="M800 100 C800 90 810 88 814 94 C818 88 828 90 828 100 C828 108 814 114 814 114 C814 114 800 108 800 100Z" fill="#FF6B6B" opacity="0.3"/>
          <text x="600" y="1565" text-anchor="middle" font-size="28" fill="#4A2020" font-family="Georgia,serif" opacity="0.7">Pucca &amp; Garu</text>
        </svg>