<svg viewBox="0 0 1200 1600" xmlns="http://www.w3.org/2000/svg">
<rect x="40" y="35" width="1120" height="1530" rx="28" fill="none" stroke="#E8443A" stroke-width="3"/>
<g transform="translate(160,120) scale(1.8)"><rect x="-22" y="22" width="44" height="40" rx="10" fill="#E8443A"/><ellipse cx="0" cy="0" rx="30" ry="28" fill="#FFE4C4"/><circle cx="-24" cy="-12" r="20" fill="#1A1A2E"/><circle cx="24" cy="-12" r="20" fill="#1A1A2E"/><circle cx="-24" cy="-12" r="9" fill="#E8443A"/><circle cx="24" cy="-12" r="9" fill="#E8443A"/><circle cx="-10" cy="-4" r="3.5" fill="#333"/><circle cx="10" cy="-4" r="3.5" fill="#333"/><path d="M-7 6 Q0 15 7 6" stroke="#E8443A" stroke-width="2.5" fill="none"/></g>
<g transform="translate(1020,120) scale(1.5)"><rect x="-18" y="22" width="36" height="36" rx="8" fill="#1A1A2E"/><ellipse cx="0" cy="0" rx="26" ry="24" fill="#FFE4C4"/><rect x="-24" y="-16" width="48" height="13" rx="4" fill="#1A1A2E"/><circle cx="-8" cy="-3" r="3" fill="#333"/><circle cx="8" cy="-3" r="3" fill="#333"/><rect x="24" y="20" width="5" height="24" rx="2.5" fill="#999"/></g>
<path d="M400 100 C400 88 412 86 416 94 C420 86 432 88 432 100 C432 110 416 118 416 118 C416 118 400 110 400 100Z" fill="#E8443A" opacity="0.3" transform="scale(1.5)"/>
<text x="600" y="1575" text-anchor="middle" font-size="26" fill="#4A2020" font-family="Georgia,serif" opacity="0.6">Pucca &amp; Garu</text>
</svg>