<svg xmlns="http://www.w3.org/2000/svg" viewBox="0 0 1200 1600">

  <rect x="50" y="40" width="1100" height="1480" rx="30" fill="none" stroke="#E8443A" stroke-width="3"/>
  <g transform="translate(160,120)">
    <rect x="-20" y="20" width="40" height="45" rx="10" fill="#E8443A"/>
    <ellipse cx="0" cy="0" rx="28" ry="26" fill="#FFE4C4"/>
    <circle cx="-22" cy="-10" r="18" fill="#1A1A2E"/><circle cx="22" cy="-10" r="18" fill="#1A1A2E"/>
    <circle cx="-22" cy="-10" r="8" fill="#E8443A"/><circle cx="22" cy="-10" r="8" fill="#E8443A"/>
    <circle cx="-9" cy="-4" r="3" fill="#333"/><circle cx="9" cy="-4" r="3" fill="#333"/>
    <path d="M-6 6 Q0 14 6 6" stroke="#E8443A" stroke-width="2" fill="none"/>
  </g>
  <!-- Love hearts -->
  <path d="M300 80 C300 68 312 66 316 74 C320 66 332 68 332 80 C332 90 316 98 316 98 C316 98 300 90 300 80Z" fill="#E8443A" opacity="0.4"/>
  <path d="M900 80 C900 70 910 68 914 74 C918 68 928 70 928 80 C928 88 914 94 914 94 C914 94 900 88 900 80Z" fill="#FF6B6B" opacity="0.4"/>
  <text x="600" y="1565" text-anchor="middle" font-family="Georgia,serif" font-size="28" fill="#4A2020" opacity="0.7">Pucca</text>
</svg>